<svg xmlns="http://www.w3.org/2000/svg" width="136.558" height="136.074" viewBox="0 0 136.558 136.074">
  <g id="Ilustra" transform="translate(-1556.446 -555.048)">
    <path id="Retângulo_244" data-name="Retângulo 244" d="M6.895,0H57.51A6.895,6.895,0,0,1,64.4,6.895V64.4a0,0,0,0,1,0,0H6.895A6.895,6.895,0,0,1,0,57.51V6.895A6.895,6.895,0,0,1,6.895,0Z" transform="translate(1556.446 555.048)" fill="#292929"/>
    <path id="Retângulo_245" data-name="Retângulo 245" d="M6.895,0H18.406a46,46,0,0,1,46,46V57.51A6.895,6.895,0,0,1,57.51,64.4H0a0,0,0,0,1,0,0V6.895A6.895,6.895,0,0,1,6.895,0Z" transform="translate(1628.598 555.048)" fill="#de4e8b"/>
    <path id="Retângulo_246" data-name="Retângulo 246" d="M6.895,0H64.4a0,0,0,0,1,0,0V57.51A6.895,6.895,0,0,1,57.51,64.4H46a46,46,0,0,1-46-46V6.895A6.895,6.895,0,0,1,6.895,0Z" transform="translate(1556.446 626.717)" fill="#faa741"/>
    <path id="Retângulo_247" data-name="Retângulo 247" d="M0,0H57.51A6.895,6.895,0,0,1,64.4,6.895V57.51A6.895,6.895,0,0,1,57.51,64.4H6.895A6.895,6.895,0,0,1,0,57.51V0A0,0,0,0,1,0,0Z" transform="translate(1628.598 626.717)" fill="#292929"/>
    <g id="Grupo_40" data-name="Grupo 40">
      <rect id="Retângulo_248" data-name="Retângulo 248" width="36.701" height="5.157" transform="translate(1570.306 569.027)" fill="#f7f7f7"/>
      <rect id="Retângulo_249" data-name="Retângulo 249" width="35.275" height="5.157" transform="translate(1591.235 570.09) rotate(90)" fill="#f7f7f7"/>
      <rect id="Retângulo_250" data-name="Retângulo 250" width="16.363" height="5.157" transform="translate(1596.839 605.474) rotate(-180)" fill="#f7f7f7"/>
      <path id="Caminho_32" data-name="Caminho 32" d="M1600.65,572.625l1.2,6.477h5.517l-.36-10.075Z" fill="#f7f7f7"/>
      <path id="Caminho_33" data-name="Caminho 33" d="M1576.646,572.625l-1.2,6.477h-5.517l.36-10.075Z" fill="#f7f7f7"/>
    </g>
    <g id="Grupo_41" data-name="Grupo 41">
      <rect id="Retângulo_251" data-name="Retângulo 251" width="26.99" height="5.398" transform="translate(1647.306 645.424)" fill="#f7f7f7"/>
      <rect id="Retângulo_252" data-name="Retângulo 252" width="26.99" height="5.398" transform="translate(1647.306 656.22)" fill="#f7f7f7"/>
      <rect id="Retângulo_253" data-name="Retângulo 253" width="26.99" height="5.398" transform="translate(1647.306 667.016)" fill="#f7f7f7"/>
    </g>
  </g>
</svg>
